<svg width="37" height="38" viewBox="0 0 37 38" fill="none" xmlns="http://www.w3.org/2000/svg">
<ellipse cx="32.5514" cy="19.7051" rx="3.77195" ry="2.42648" transform="rotate(-175.619 32.5514 19.7051)" fill="#5C7992"/>
<ellipse cx="3.6451" cy="16.4605" rx="2.54159" ry="1.43655" fill="#5C7992"/>
<ellipse cx="3.20594" cy="20.8808" rx="2.9836" ry="1.43655" transform="rotate(-11.2089 3.20594 20.8808)" fill="#5C7992"/>
<ellipse cx="4.17485" cy="25.4255" rx="3.21797" ry="1.43655" transform="rotate(-19.8776 4.17485 25.4255)" fill="#5C7992"/>
<ellipse cx="7.38127" cy="30.193" rx="3.73371" ry="1.70537" transform="rotate(-38.32 7.38127 30.193)" fill="#5C7992"/>
<ellipse cx="12.4431" cy="33.5369" rx="3.73371" ry="1.84104" transform="rotate(-68.4106 12.4431 33.5369)" fill="#5C7992"/>
<ellipse cx="19.3371" cy="34.0593" rx="3.68507" ry="2.02702" transform="rotate(-94.6746 19.3371 34.0593)" fill="#5C7992"/>
<ellipse cx="25.6895" cy="31.8147" rx="3.68507" ry="2.02702" transform="rotate(-121.022 25.6895 31.8147)" fill="#5C7992"/>
<ellipse cx="30.6599" cy="26.8848" rx="3.77195" ry="2.42647" transform="rotate(-149.128 30.6599 26.8848)" fill="#5C7992"/>
<ellipse cx="31.1863" cy="11.6017" rx="4.50275" ry="2.42648" transform="rotate(148.84 31.1863 11.6017)" fill="#5C7992"/>
<ellipse cx="25.3387" cy="5.55205" rx="4.76223" ry="2.85514" transform="rotate(120.185 25.3387 5.55205)" fill="#5C7992"/>
</svg>
