<svg width="12" height="17" viewBox="0 0 12 17" fill="none" xmlns="http://www.w3.org/2000/svg">
<path fill-rule="evenodd" clip-rule="evenodd" d="M0.273839 8.09592C-0.0629348 7.76201 -0.093262 7.18676 0.206083 6.8111L5.39021 0.305454C5.54503 0.111168 5.76695 0 5.99999 0C6.23301 0 6.4549 0.111168 6.60981 0.305454L11.7939 6.8111C12.0933 7.18676 12.0629 7.76201 11.7262 8.09592C11.3894 8.42985 10.8737 8.39601 10.5744 8.02034L6.81588 3.30376V16.0899C6.81588 16.5925 6.45054 17 5.99999 17C5.54941 17 5.18414 16.5925 5.18414 16.0899V3.30376L1.42565 8.02034C1.1263 8.39601 0.610614 8.42985 0.273839 8.09592Z" fill="white"/>
</svg>
